<?xml version="1.0" standalone="no"?>
<!DOCTYPE svg PUBLIC "-//W3C//DTD SVG 20010904//EN"
 "http://www.w3.org/TR/2001/REC-SVG-20010904/DTD/svg10.dtd">
<svg version="1.0" xmlns="http://www.w3.org/2000/svg"
 width="512.000000pt" height="512.000000pt" viewBox="0 0 512.000000 512.000000"
 preserveAspectRatio="xMidYMid meet">

<g transform="translate(0.000000,512.000000) scale(0.100000,-0.100000)"
fill="#000000" stroke="none">
<path d="M2325 4505 c-410 -53 -787 -233 -1082 -516 -55 -52 -75 -80 -84 -111
-14 -53 0 -106 40 -150 l28 -32 -43 -59 c-181 -246 -302 -544 -348 -858 -16
-109 -21 -406 -8 -504 l7 -50 -62 -75 c-143 -171 -200 -384 -159 -590 10 -47
24 -95 32 -107 29 -46 105 -41 133 9 13 23 14 34 2 75 -52 191 -2 387 136 533
100 107 215 150 272 103 16 -14 76 -189 236 -688 118 -368 215 -678 215 -688
0 -90 -143 -145 -296 -113 -180 36 -301 132 -379 299 -24 52 -51 97 -60 101
-34 13 -72 6 -95 -19 -31 -33 -23 -85 30 -193 80 -161 231 -282 414 -332 107
-30 271 -25 360 10 70 27 142 89 167 145 38 82 35 96 -197 817 -119 370 -224
688 -234 708 -24 46 -76 95 -122 114 -47 20 -133 20 -188 1 -23 -8 -47 -15
-52 -15 -7 0 -9 76 -5 218 4 169 10 239 27 317 30 141 90 315 148 431 50 100
161 276 181 288 6 4 26 -5 45 -19 90 -68 152 -56 274 56 206 189 444 311 690
354 109 19 316 19 425 0 250 -44 470 -154 690 -348 103 -91 135 -105 202 -93
20 4 51 21 71 38 20 17 39 27 42 22 121 -166 228 -370 280 -535 60 -187 73
-275 79 -511 4 -142 2 -218 -5 -218 -5 0 -29 7 -52 15 -55 19 -141 19 -188 -1
-46 -19 -98 -68 -122 -114 -10 -20 -115 -338 -234 -708 -232 -721 -235 -735
-197 -817 25 -56 97 -118 167 -145 80 -31 252 -39 345 -16 185 46 348 174 427
336 43 88 202 570 227 688 45 212 -23 446 -182 619 -39 42 -39 44 -32 100 13
107 10 391 -7 502 -46 312 -159 594 -338 845 l-57 78 35 38 c95 106 39 210
-218 400 -398 295 -899 427 -1381 365z m535 -170 c277 -50 538 -163 759 -330
53 -40 116 -94 140 -119 l45 -45 -69 -63 c-115 -106 -107 -102 -141 -67 -129
137 -380 291 -580 358 -146 48 -228 62 -406 68 -200 7 -314 -9 -489 -67 -200
-66 -368 -164 -542 -315 l-88 -76 -47 39 c-26 22 -65 59 -86 81 -39 40 -39 41
-20 62 83 92 294 239 459 319 185 90 365 144 568 170 106 13 386 4 497 -15z
m1226 -2171 c102 -53 203 -178 246 -302 18 -53 23 -88 23 -172 l0 -105 -94
-290 c-103 -319 -132 -384 -207 -461 -126 -129 -361 -182 -500 -113 -83 41
-85 55 -37 206 334 1049 394 1229 414 1246 31 25 97 22 155 -9z"/>
<path d="M385 1595 c-14 -13 -25 -34 -25 -47 0 -13 57 -193 126 -401 125 -375
126 -378 160 -395 31 -14 37 -14 69 1 62 29 61 34 -79 454 -96 289 -133 387
-149 398 -32 22 -74 19 -102 -10z"/>
<path d="M4633 1605 c-30 -21 -279 -768 -270 -808 13 -51 104 -72 137 -32 15
19 260 755 260 783 0 55 -79 91 -127 57z"/>
<path d="M736 1319 c-20 -16 -26 -29 -26 -59 0 -30 6 -43 26 -59 15 -12 37
-21 49 -21 12 0 34 9 49 21 20 16 26 29 26 59 0 30 -6 43 -26 59 -15 12 -37
21 -49 21 -12 0 -34 -9 -49 -21z"/>
</g>
</svg>
